<svg enable-background="new 0 0 100 100" height="100" viewBox="0 0 100 100" width="100" xmlns="http://www.w3.org/2000/svg"><path d="m78 10h-56c-1.1 0-2 .9-2 2v76c0 1.1.9 2 2 2h56c1.1 0 2-.9 2-2v-76c0-1.1-.9-2-2-2zm-2 76h-52v-14h8.3c.8 2.3 3 4 5.7 4 3.3 0 6-2.7 6-6s-2.7-6-6-6c-2.6 0-4.8 1.7-5.7 4h-8.3v-16h8.3c.8 2.3 3 4 5.7 4 3.3 0 6-2.7 6-6s-2.7-6-6-6c-2.6 0-4.8 1.7-5.7 4h-8.3v-16h8.3c.8 2.3 3 4 5.7 4 3.3 0 6-2.7 6-6s-2.7-6-6-6c-2.6 0-4.8 1.7-5.7 4h-8.3v-14h52zm-40-16c0-1.1.9-2 2-2s2 .9 2 2-.9 2-2 2-2-.9-2-2zm0-20c0-1.1.9-2 2-2s2 .9 2 2-.9 2-2 2-2-.9-2-2zm0-20c0-1.1.9-2 2-2s2 .9 2 2-.9 2-2 2-2-.9-2-2z"/><path d="m384-930v1684h-1784v-1684zm8-8h-1800v1700h1800z" fill="#00f"/></svg>